<svg width="31" height="31" viewBox="0 0 31 31" fill="none" xmlns="http://www.w3.org/2000/svg">
<path d="M12.7568 13.7654C13.0481 13.5545 13.1888 13.2063 13.1888 12.7275C13.1988 12.4998 13.1519 12.2755 13.0515 12.0712C12.9611 11.9072 12.8271 11.7699 12.6631 11.6728C12.493 11.5696 12.304 11.5013 12.1073 11.4719C11.893 11.4317 11.6754 11.4116 11.4611 11.415H9.10728V14.0835H11.6553C12.0939 14.0868 12.4655 13.9797 12.7568 13.7654V13.7654ZM13.1519 16.1761C12.8238 15.925 12.3852 15.8011 11.8394 15.8011H9.10059V18.9485H11.7859C12.037 18.9485 12.268 18.925 12.4923 18.8781C12.7046 18.8366 12.9069 18.7548 13.0883 18.6371C13.2591 18.5266 13.3963 18.3759 13.5001 18.1817C13.6006 17.9875 13.6508 17.7397 13.6508 17.4418C13.6508 16.8491 13.4834 16.4306 13.1519 16.1761V16.1761ZM15.8271 0.161621C7.54367 0.161621 0.827148 6.87814 0.827148 15.1616C0.827148 23.4451 7.54367 30.1616 15.8271 30.1616C24.1106 30.1616 30.8271 23.4451 30.8271 15.1616C30.8271 6.87814 24.1106 0.161621 15.8271 0.161621ZM18.7234 9.76765H23.3573V10.896H18.7234V9.76765ZM15.8271 19.0723C15.6104 19.4838 15.3009 19.8391 14.9231 20.1103C14.528 20.3848 14.0894 20.5857 13.624 20.7029C13.1371 20.8334 12.6348 20.8976 12.1307 20.8938H6.58608V9.473H11.9767C12.5225 9.473 13.018 9.52323 13.47 9.61698C13.9187 9.71073 14.3004 9.87144 14.6218 10.0891C14.9399 10.3067 15.191 10.598 15.3684 10.9596C15.5425 11.3179 15.633 11.7665 15.633 12.2989C15.633 12.8748 15.5024 13.3502 15.2412 13.7353C14.9767 14.1203 14.595 14.4317 14.076 14.6761C14.7825 14.877 15.3015 15.2353 15.643 15.7375C15.9912 16.2464 16.162 16.8558 16.162 17.5723C16.162 18.1549 16.0515 18.6538 15.8271 19.0723ZM25.162 17.3045H19.1888C19.1888 17.954 19.4131 18.5768 19.7513 18.9116C20.0928 19.2431 20.5816 19.4105 21.2211 19.4105C21.6832 19.4105 22.0749 19.2933 22.4097 19.0623C22.7412 18.8313 22.9421 18.5868 23.0158 18.3324H25.018C24.6966 19.3268 24.2077 20.0366 23.5448 20.4652C22.8885 20.8938 22.085 21.108 21.1508 21.108C20.4979 21.108 19.912 21.0009 19.3863 20.7967C18.8807 20.5991 18.4254 20.2978 18.0504 19.9094C17.6806 19.5105 17.3948 19.0414 17.21 18.5299C17.0057 17.9641 16.9053 17.3681 16.912 16.7688C16.912 16.1493 17.0158 15.5735 17.2167 15.0377C17.6017 13.9964 18.4019 13.1627 19.4231 12.7308C19.9689 12.5031 20.5548 12.3893 21.1475 12.396C21.8506 12.396 22.46 12.5299 22.989 12.8045C23.4983 13.0667 23.9405 13.4424 24.2814 13.9027C24.6196 14.3614 24.8573 14.8837 25.008 15.473C25.1519 16.0522 25.2021 16.6616 25.162 17.3045V17.3045ZM21.0771 14.1036C20.7155 14.1036 20.4109 14.1672 20.1765 14.2911C19.9421 14.415 19.7479 14.569 19.6006 14.7464C19.4603 14.9178 19.3566 15.1161 19.2959 15.329C19.2423 15.5065 19.2055 15.6873 19.1921 15.8714H22.8919C22.8383 15.2922 22.6374 14.8636 22.3696 14.5623C22.0883 14.2643 21.6363 14.1036 21.0771 14.1036V14.1036Z" fill="black"/>
</svg>
