<svg width="30" height="30" viewBox="0 0 30 30" fill="none" xmlns="http://www.w3.org/2000/svg">
<path fill-rule="evenodd" clip-rule="evenodd" d="M15 30C23.2842 30 30 23.2842 30 15C30 6.71582 23.2842 0 15 0C6.71582 0 0 6.71582 0 15C0 23.2842 6.71582 30 15 30ZM5.25 15C5.25 9.62354 9.62354 5.25 15 5.25C20.3765 5.25 24.75 9.62354 24.75 15C24.75 20.3765 20.3765 24.75 15 24.75C9.62354 24.75 5.25 20.3765 5.25 15ZM23.3271 14.9343C23.311 12.968 22.6079 11.1633 21.4478 9.74536C21.272 9.98438 19.875 11.7727 16.7979 13.0312C16.9922 13.4272 17.1772 13.8328 17.3506 14.2383C17.4116 14.3813 17.4702 14.5242 17.5288 14.6672C20.2993 14.3179 23.0532 14.8757 23.3271 14.9343ZM20.5195 8.78198C19.0498 7.479 17.1162 6.68433 15 6.68433C14.3413 6.68433 13.6875 6.76172 13.0479 6.9165C13.2798 7.22583 14.7915 9.28369 16.1553 11.7915C19.1157 10.6804 20.3696 8.99536 20.5195 8.78198ZM14.5454 12.293C13.167 9.84131 11.6787 7.77661 11.4585 7.47656C9.12891 8.57568 7.3877 10.7227 6.84619 13.3079C7.21875 13.3125 10.6499 13.3267 14.5454 12.293ZM6.67725 14.7563C6.6748 14.8406 6.67285 14.9272 6.67285 15.0117C6.67285 17.1516 7.4834 19.104 8.8125 20.5806C9.00244 20.2593 11.2876 16.4741 15.5835 15.082C15.6914 15.0469 15.8018 15.0142 15.9116 14.9836C15.8213 14.7781 15.7271 14.5725 15.6299 14.3677C15.5034 14.1006 15.3721 13.8342 15.2368 13.5703C11.0767 14.8149 7.04053 14.7632 6.67725 14.7563ZM9.88818 21.5813C11.2993 22.6829 13.0732 23.3391 15 23.3391C16.1172 23.342 17.2236 23.1172 18.251 22.6782C18.1265 21.9468 17.6436 19.3992 16.4741 16.3618L16.4204 16.3804C11.7236 18.0188 10.0381 21.2742 9.88818 21.5813ZM18.0352 15.9797C19.125 18.9727 19.5679 21.4102 19.6523 21.9165C21.5225 20.6531 22.8516 18.6516 23.2217 16.3359C22.9385 16.2468 20.646 15.5625 18.0352 15.9797Z" fill="black"/>
</svg>
