<svg width="31" height="31" viewBox="0 0 31 31" fill="none" xmlns="http://www.w3.org/2000/svg">
<path fill-rule="evenodd" clip-rule="evenodd" d="M15.8296 30.1616C7.54559 30.1616 0.82959 23.4456 0.82959 15.1616C0.82959 6.87762 7.54559 0.161621 15.8296 0.161621C24.1136 0.161621 30.8296 6.87762 30.8296 15.1616C30.8296 23.4456 24.1136 30.1616 15.8296 30.1616ZM15.8296 6.16162C13.3856 6.16162 13.0796 6.17162 12.1196 6.21562C11.1606 6.25962 10.5066 6.41162 9.93459 6.63362C9.33365 6.85977 8.78932 7.21435 8.33959 7.67262C7.83959 8.17262 7.53159 8.67462 7.30059 9.26662C7.07859 9.83862 6.92659 10.4926 6.88259 11.4506C6.83959 12.4116 6.82959 12.7176 6.82959 15.1616C6.82959 17.6056 6.83959 17.9116 6.88359 18.8716C6.92759 19.8306 7.07959 20.4846 7.30159 21.0566C7.53159 21.6486 7.83959 22.1506 8.34059 22.6506C8.84059 23.1506 9.34259 23.4596 9.93459 23.6896C10.5066 23.9116 11.1606 24.0636 12.1186 24.1076C13.0786 24.1516 13.3856 24.1616 15.8296 24.1616C18.2736 24.1616 18.5796 24.1516 19.5396 24.1076C20.4986 24.0636 21.1526 23.9116 21.7246 23.6896C22.3252 23.4634 22.8692 23.1088 23.3186 22.6506C23.8186 22.1506 24.1266 21.6486 24.3576 21.0566C24.5796 20.4846 24.7316 19.8306 24.7756 18.8726C24.8196 17.9126 24.8296 17.6056 24.8296 15.1616C24.8296 12.7176 24.8196 12.4116 24.7756 11.4516C24.7316 10.4926 24.5796 9.83862 24.3576 9.26662C24.1313 8.66604 23.7767 8.12206 23.3186 7.67262C22.8186 7.17262 22.3166 6.86462 21.7246 6.63362C21.1526 6.41162 20.4986 6.25962 19.5406 6.21562C18.5796 6.17162 18.2736 6.16162 15.8296 6.16162ZM15.8296 7.78362C18.2326 7.78362 18.5176 7.79262 19.4666 7.83562C20.3436 7.87562 20.8206 8.02262 21.1376 8.14562C21.5576 8.30862 21.8576 8.50362 22.1726 8.81862C22.4876 9.13362 22.6826 9.43362 22.8456 9.85362C22.9686 10.1706 23.1156 10.6476 23.1556 11.5246C23.1986 12.4746 23.2076 12.7586 23.2076 15.1616C23.2076 17.5646 23.1986 17.8496 23.1556 18.7986C23.1156 19.6756 22.9686 20.1526 22.8456 20.4686C22.6826 20.8896 22.4876 21.1886 22.1726 21.5046C21.8822 21.8034 21.5285 22.0334 21.1376 22.1776C20.8206 22.3006 20.3436 22.4476 19.4666 22.4876C18.5166 22.5306 18.2326 22.5396 15.8296 22.5396C13.4266 22.5396 13.1416 22.5306 12.1926 22.4876C11.3156 22.4476 10.8386 22.3006 10.5216 22.1776C10.1307 22.0334 9.777 21.8034 9.48659 21.5046C9.18776 21.2142 8.95779 20.8606 8.81359 20.4696C8.69059 20.1526 8.54359 19.6756 8.50359 18.7986C8.46059 17.8486 8.45159 17.5646 8.45159 15.1616C8.45159 12.7586 8.46059 12.4736 8.50359 11.5246C8.54359 10.6476 8.69059 10.1706 8.81359 9.85362C8.97659 9.43362 9.17159 9.13362 9.48659 8.81862C9.80159 8.50362 10.1016 8.30862 10.5216 8.14562C10.8386 8.02262 11.3156 7.87562 12.1926 7.83562C13.1426 7.79262 13.4266 7.78362 15.8296 7.78362ZM15.3296 18.5836C14.9459 18.5836 14.566 18.5081 14.2116 18.3612C13.8571 18.2144 13.5351 17.9992 13.2638 17.7279C12.9925 17.4566 12.7773 17.1346 12.6305 16.7801C12.4837 16.4257 12.4081 16.0458 12.4081 15.6621C12.4081 15.2785 12.4837 14.8986 12.6305 14.5441C12.7773 14.1897 12.9925 13.8676 13.2638 13.5963C13.5351 13.325 13.8571 13.1098 14.2116 12.963C14.566 12.8162 14.9459 12.7406 15.3296 12.7406C16.1043 12.7406 16.8473 13.0484 17.395 13.5962C17.9428 14.144 18.2506 14.8869 18.2506 15.6616C18.2506 16.4363 17.9428 17.1793 17.395 17.7271C16.8473 18.2749 16.1043 18.5826 15.3296 18.5826V18.5836ZM15.3296 11.1616C14.1361 11.1616 12.9915 11.6357 12.1476 12.4796C11.3037 13.3236 10.8296 14.4681 10.8296 15.6616C10.8296 16.8551 11.3037 17.9997 12.1476 18.8436C12.9915 19.6875 14.1361 20.1616 15.3296 20.1616C16.5231 20.1616 17.6677 19.6875 18.5116 18.8436C19.3555 17.9997 19.8296 16.8551 19.8296 15.6616C19.8296 14.4681 19.3555 13.3236 18.5116 12.4796C17.6677 11.6357 16.5231 11.1616 15.3296 11.1616ZM20.8296 11.1616C20.8296 10.8964 20.7242 10.6421 20.5367 10.4545C20.3492 10.267 20.0948 10.1616 19.8296 10.1616C19.5644 10.1616 19.31 10.267 19.1225 10.4545C18.9349 10.6421 18.8296 10.8964 18.8296 11.1616C18.8296 11.4268 18.9349 11.6812 19.1225 11.8687C19.31 12.0563 19.5644 12.1616 19.8296 12.1616C20.0948 12.1616 20.3492 12.0563 20.5367 11.8687C20.7242 11.6812 20.8296 11.4268 20.8296 11.1616Z" fill="black"/>
</svg>
