<svg width="31" height="31" viewBox="0 0 31 31" fill="none" xmlns="http://www.w3.org/2000/svg">
<path fill-rule="evenodd" clip-rule="evenodd" d="M15.8296 30.1616C7.54559 30.1616 0.82959 23.4456 0.82959 15.1616C0.82959 6.87762 7.54559 0.161621 15.8296 0.161621C24.1136 0.161621 30.8296 6.87762 30.8296 15.1616C30.8296 23.4456 24.1136 30.1616 15.8296 30.1616ZM22.8296 22.0586V17.0756C22.8296 14.6286 22.3266 12.7476 19.6056 12.7476C18.2986 12.7476 17.4216 13.5006 17.0626 14.2156H17.0266V12.9736H14.4496V22.0586H17.1336V17.5646C17.1336 16.3796 17.3466 15.2316 18.7456 15.2316C20.1246 15.2316 20.1416 16.5866 20.1416 17.6406V22.0586H22.8296ZM11.1926 10.8856C11.4371 10.8854 11.6792 10.8371 11.905 10.7433C12.1309 10.6496 12.336 10.5122 12.5088 10.3392C12.6815 10.1662 12.8185 9.96078 12.9119 9.73479C13.0053 9.50881 13.0533 9.26664 13.0531 9.02212C13.0529 8.7776 13.0045 8.53551 12.9108 8.30968C12.817 8.08385 12.6797 7.87869 12.5067 7.70593C12.3336 7.53316 12.1282 7.39618 11.9023 7.30278C11.6763 7.20939 11.4341 7.16142 11.1896 7.16162C10.6956 7.16189 10.222 7.35837 9.8729 7.70784C9.5238 8.05732 9.32782 8.53116 9.32809 9.02512C9.32835 9.51909 9.52484 9.99272 9.87431 10.3418C10.2238 10.6909 10.6976 10.8869 11.1916 10.8866L11.1926 10.8856ZM9.79559 22.0586H12.5886V12.7486H9.79559V22.0586Z" fill="black"/>
</svg>
