<svg width="31" height="31" viewBox="0 0 31 31" fill="none" xmlns="http://www.w3.org/2000/svg">
<path fill-rule="evenodd" clip-rule="evenodd" d="M15.8296 0.161621C7.54559 0.161621 0.82959 6.87762 0.82959 15.1616C0.82959 21.5166 4.78359 26.9486 10.3636 29.1346C10.2316 27.9476 10.1136 26.1226 10.4156 24.8266C10.6876 23.6566 12.1746 17.3706 12.1746 17.3706C12.1746 17.3706 11.7246 16.4726 11.7246 15.1436C11.7246 13.0576 12.9346 11.5006 14.4396 11.5006C15.7196 11.5006 16.3376 12.4616 16.3376 13.6136C16.3376 14.9006 15.5176 16.8246 15.0956 18.6076C14.7416 20.1016 15.8436 21.3186 17.3156 21.3186C19.9826 21.3186 22.0316 18.5076 22.0316 14.4496C22.0316 10.8586 19.4516 8.34762 15.7666 8.34762C11.4986 8.34762 8.99359 11.5476 8.99359 14.8576C8.99359 16.1456 9.48959 17.5276 10.1096 18.2796C10.2316 18.4286 10.2496 18.5586 10.2136 18.7096C10.0996 19.1836 9.84659 20.2026 9.79659 20.4116C9.73159 20.6856 9.57959 20.7436 9.29559 20.6116C7.42159 19.7396 6.25059 17.0016 6.25059 14.8016C6.25059 10.0686 9.68859 5.72362 16.1616 5.72362C21.3646 5.72362 25.4086 9.43162 25.4086 14.3866C25.4086 19.5566 22.1486 23.7166 17.6246 23.7166C16.1046 23.7166 14.6766 22.9266 14.1876 21.9946C14.1876 21.9946 13.4346 24.8586 13.2526 25.5606C12.9136 26.8636 11.9996 28.4966 11.3886 29.4926C12.7916 29.9276 14.2836 30.1616 15.8296 30.1616C24.1136 30.1616 30.8296 23.4456 30.8296 15.1616C30.8296 6.87762 24.1136 0.161621 15.8296 0.161621" fill="black"/>
</svg>
