<svg width="31" height="31" viewBox="0 0 31 31" fill="none" xmlns="http://www.w3.org/2000/svg">
<path fill-rule="evenodd" clip-rule="evenodd" d="M15.8296 30.1616C7.54559 30.1616 0.82959 23.4456 0.82959 15.1616C0.82959 6.87762 7.54559 0.161621 15.8296 0.161621C24.1136 0.161621 30.8296 6.87762 30.8296 15.1616C30.8296 23.4456 24.1136 30.1616 15.8296 30.1616ZM12.9456 21.9736C19.3606 21.9736 22.8686 16.6606 22.8686 12.0536C22.8686 11.9016 22.8656 11.7516 22.8586 11.6026C23.5412 11.1087 24.1304 10.4971 24.5986 9.79662C23.9622 10.0791 23.287 10.2645 22.5956 10.3466C23.3241 9.9107 23.8693 9.22476 24.1296 8.41662C23.4556 8.81662 22.7096 9.10662 21.9146 9.26362C21.3897 8.70187 20.694 8.32925 19.9355 8.2037C19.1771 8.07814 18.3984 8.20668 17.7205 8.56934C17.0426 8.932 16.5036 9.50845 16.1871 10.2091C15.8707 10.9097 15.7945 11.6953 15.9706 12.4436C14.584 12.3742 13.2276 12.0139 11.9893 11.3863C10.751 10.7587 9.65843 9.87776 8.78259 8.80062C8.33507 9.56794 8.19763 10.4772 8.39839 11.3425C8.59915 12.2078 9.12293 12.9637 9.86259 13.4556C9.30854 13.4385 8.76671 13.2886 8.28259 13.0186L8.28159 13.0636C8.28203 13.8687 8.56086 14.6488 9.07082 15.2718C9.58077 15.8947 10.2905 16.3222 11.0796 16.4816C10.566 16.6211 10.0273 16.6416 9.50459 16.5416C9.72749 17.2345 10.1613 17.8405 10.7455 18.2747C11.3296 18.709 12.0349 18.9498 12.7626 18.9636C11.527 19.9332 10.0012 20.459 8.43059 20.4566C8.14959 20.4566 7.87159 20.4406 7.59859 20.4076C9.1936 21.4323 11.0498 21.9763 12.9456 21.9746V21.9736Z" fill="black"/>
</svg>
