<svg width="31" height="30" viewBox="0 0 31 30" fill="none" xmlns="http://www.w3.org/2000/svg">
<path fill-rule="evenodd" clip-rule="evenodd" d="M15.8271 30C24.1113 30 30.8271 23.2842 30.8271 15C30.8271 6.71582 24.1113 0 15.8271 0C7.54297 0 0.827148 6.71582 0.827148 15C0.827148 23.2842 7.54297 30 15.8271 30ZM7.91504 13.8086C7.95605 13.5366 8.01074 13.2668 8.0791 13H10.9272C10.7925 14.3298 10.7925 15.6702 10.9272 17H8.0791C7.97949 16.6123 7.9082 16.2134 7.86719 15.8059C7.84082 15.5408 7.82715 15.272 7.82715 15C7.82666 14.6008 7.85596 14.2026 7.91504 13.8086ZM11.2432 11H8.89697C9.70459 9.60522 10.9121 8.48535 12.3643 7.78589C12.0659 8.36035 11.8022 9.00806 11.5815 9.71509C11.4541 10.1245 11.3408 10.5537 11.2432 11ZM20.7271 13H23.5752C23.9116 14.312 23.9116 15.688 23.5752 17H20.7271C20.8618 15.6702 20.8618 14.3298 20.7271 13ZM19.29 7.78589C20.7422 8.48535 21.9497 9.60522 22.7573 11H20.4111C20.145 9.78296 19.7622 8.69312 19.29 7.78589ZM12.8608 13.8943C12.8794 13.5957 12.9053 13.2976 12.939 13H18.7153C18.8657 14.3291 18.8657 15.6709 18.7153 17H12.939C12.8652 16.355 12.8271 15.6851 12.8271 15C12.8267 14.6311 12.8384 14.2625 12.8608 13.8943ZM17.5742 8.823C17.9126 9.51831 18.1753 10.2483 18.3569 11H13.2974C13.5 10.1899 13.7651 9.45508 14.0801 8.823C14.708 7.56812 15.3789 7 15.8271 7C16.2739 7 16.9463 7.56812 17.5742 8.823ZM12.3643 22.2141C10.9121 21.5146 9.70459 20.3948 8.89697 19H11.2432C11.5093 20.217 11.8921 21.3069 12.3643 22.2141ZM20.4111 19H22.7573C21.9497 20.3948 20.7422 21.5146 19.29 22.2141C19.7612 21.3069 20.145 20.217 20.4111 19ZM13.6284 20.105C13.5049 19.7559 13.394 19.3865 13.2974 19H18.3569C18.1543 19.8101 17.8892 20.5449 17.5742 21.177C16.9463 22.4319 16.2754 23 15.8271 23C15.3804 23 14.708 22.4319 14.0801 21.177C13.9155 20.8464 13.7642 20.4878 13.6284 20.105ZM5.82715 15C5.82715 20.5229 10.3042 25 15.8271 25C21.3501 25 25.8271 20.5229 25.8271 15C25.8271 9.47705 21.3501 5 15.8271 5C10.3042 5 5.82715 9.47705 5.82715 15Z" fill="black"/>
</svg>
