<svg width="107" height="66" viewBox="0 0 107 66" fill="none" xmlns="http://www.w3.org/2000/svg">
<path d="M46.6964 45.7518C46.6328 48.0953 46.825 50.9416 46.577 53.7802C46.3337 56.5742 45.6688 59.2406 43.9563 61.5426C41.9926 64.1844 39.2417 65.453 36.0367 65.8282C31.6925 66.3372 27.5483 65.7359 23.7125 63.5139C23.2475 63.2448 23.0615 62.9511 23.091 62.4221C23.1344 61.6564 23.1313 60.8844 23.0925 60.1171C23.0646 59.5512 23.1855 59.4175 23.7698 59.6189C25.7288 60.2955 27.7389 60.7476 29.8281 60.743C30.3178 60.7414 30.8122 60.7353 31.2958 60.6692C34.4884 60.2324 36.1917 58.298 36.3001 54.9596C36.342 53.6541 36.3017 52.3471 36.3218 51.04C36.328 50.6418 36.2629 50.4311 35.7825 50.4357C35.316 50.4403 35.1192 50.5203 35.0835 51.0554C34.8356 54.6736 32.4814 57.3093 29.1136 57.8013C24.943 58.4118 21.4187 55.9192 20.5291 51.7458C20.216 50.2758 20.2796 48.7904 20.2749 47.3065C20.2703 46.0256 20.261 44.7446 20.2811 43.4637C20.2873 43.0332 20.2083 42.8133 19.6969 42.824C18.2772 42.8548 16.856 42.844 15.4364 42.8287C15.0257 42.8241 14.8289 42.9194 14.8382 43.3807C14.8986 46.5822 14.7359 49.7853 14.9513 52.9837C14.9993 53.7003 15.1233 54.4076 15.3511 55.0919C15.9153 56.7941 16.9397 57.4799 18.7313 57.3554C18.9622 57.3385 19.1947 57.3123 19.4225 57.2677C20.7864 56.9986 20.7864 56.9971 20.7864 58.3626C20.7864 58.5933 20.7445 58.8331 20.7926 59.053C21.0963 60.4154 20.3493 61.1059 19.2319 61.6533C15.7154 63.374 12.1058 63.6692 8.43272 62.2976C4.92701 60.9875 3.09667 58.2642 3.08427 54.5429C3.07187 50.9047 3.06722 47.2665 3.09512 43.6298C3.09977 42.9886 2.98508 42.7026 2.25511 42.7564C1.57164 42.8071 0.674289 43.0624 0.237238 42.6441C-0.206013 42.2228 0.110152 41.334 0.0977533 40.6497C0.0745059 39.3519 0.091554 39.3534 1.29577 38.8629C5.54074 37.1315 9.79037 35.4077 14.0276 33.6532C14.6584 33.3917 14.7979 33.504 14.7886 34.1683C14.7607 35.9628 14.787 35.9613 16.5631 35.9628C21.3908 35.9674 26.2201 35.9828 31.0478 35.9628C31.6584 35.9597 31.8304 36.1166 31.8227 36.727C31.7917 39.6733 31.8103 42.6195 31.8149 45.5658C31.8165 46.3362 31.8568 47.102 32.1234 47.8385C32.3434 48.4444 32.6519 48.9918 33.3927 49.0026C34.1211 49.0118 34.4853 48.489 34.7364 47.9016C35.0634 47.1342 35.13 46.3162 35.1285 45.4904C35.1269 42.5703 35.1424 39.6487 35.1161 36.7286C35.1114 36.1504 35.2277 35.9397 35.8724 35.9459C39.2293 35.9812 42.5862 35.9797 45.9416 35.9474C46.5646 35.9413 46.715 36.1212 46.7088 36.7193C46.6793 39.5656 46.6964 42.4089 46.6964 45.7518Z" fill="black"/>
<path d="M34.9441 16.9737C34.9441 12.4144 34.9565 7.85505 34.9301 3.29574C34.927 2.65605 35.0991 2.48383 35.7453 2.49152C38.7133 2.52689 41.6827 2.52227 44.6522 2.4946C45.2442 2.48844 45.455 2.62376 45.4442 3.25422C45.4039 5.45622 45.4302 7.65976 45.4287 9.86176C45.4287 10.2508 45.3605 10.6075 45.9943 10.5999C46.5585 10.5937 46.605 10.3507 46.6174 9.90789C46.6515 8.73 46.7708 7.55673 47.0591 6.40806C48.2416 1.70114 51.6249 -0.128736 56.1178 0.224937C59.8265 0.517102 62.345 2.58378 63.7538 5.89754C65.5392 10.0924 65.5625 14.3842 63.8592 18.6159C62.4582 22.0958 58.7448 23.6319 55.236 22.2511C54.5106 21.9651 54.4843 22.4694 54.2503 22.8185C53.8954 23.349 54.3805 23.412 54.6749 23.5504C56.1969 24.2701 57.8412 24.4423 59.4887 24.5776C61.7034 24.7606 63.9258 24.7575 66.1452 24.7237C66.7078 24.7145 66.9031 24.839 66.8891 25.4357C66.8473 27.2532 66.8767 29.0724 66.8705 30.8915C66.869 31.1713 66.9914 31.5112 66.4706 31.5327C61.8615 31.7172 57.5948 30.7946 53.9527 27.7961C52.3734 26.4952 51.0483 24.9621 49.7945 23.3613C49.0351 22.391 48.3206 21.3823 47.4078 20.5411C47.2094 20.3597 47.0048 20.026 46.7228 20.1444C46.4686 20.2505 46.6127 20.6073 46.6127 20.8487C46.6034 24.1271 46.5895 27.4055 46.6205 30.6839C46.6267 31.3251 46.5073 31.5619 45.7882 31.5527C42.4328 31.5096 39.0759 31.5142 35.7205 31.5496C35.051 31.5573 34.9255 31.3435 34.9286 30.7285C34.9565 26.143 34.9441 21.5591 34.9441 16.9737ZM52.8895 14.9454C52.8461 13.9997 52.7888 13.054 52.4664 12.1499C52.0991 11.1242 51.5954 10.1616 50.3835 10.0171C49.125 9.86637 48.3919 10.7213 47.8324 11.6824C46.9707 13.1632 46.746 14.807 46.715 16.4893C46.7104 16.7399 46.8204 16.9306 46.9583 17.1167C47.6015 17.9855 48.4229 18.6298 49.4458 18.9911C50.8608 19.4909 51.9348 18.9819 52.4742 17.5887C52.8043 16.7369 52.8415 15.8404 52.8895 14.9454Z" fill="black"/>
<path d="M14.7746 21.187C14.7746 23.0369 14.7746 24.6945 14.7746 26.3522C14.7746 27.8884 14.7622 29.4261 14.7824 30.9622C14.7886 31.3897 14.6615 31.5435 14.2151 31.542C10.7048 31.5281 7.19286 31.5266 3.68251 31.5435C3.19896 31.5466 3.07343 31.379 3.07343 30.9223C3.08427 21.6499 3.08427 12.3775 3.07343 3.10356C3.07343 2.6238 3.23616 2.49617 3.69956 2.49924C6.77131 2.51616 9.84462 2.51616 12.9164 2.49924C13.4092 2.49617 13.5797 2.62226 13.5735 3.14508C13.5425 5.39936 13.5689 7.65364 13.5534 9.90792C13.5503 10.3539 13.5874 10.6014 14.1593 10.603C14.7266 10.6045 14.7777 10.3585 14.7824 9.91254C14.7963 8.25796 15.1218 6.66643 15.7247 5.11796C17.8588 -0.36397 26.6618 -1.87554 30.5627 3.56488C32.7185 6.5711 33.3493 9.95713 33.1587 13.5477C33.0176 16.2064 32.3063 18.6944 30.6743 20.861C26.7889 26.02 19.4659 26.3537 15.1311 21.573C15.0644 21.4946 14.9931 21.4223 14.7746 21.187ZM21.0096 14.9116C21.0173 13.8537 20.9026 12.8111 20.4919 11.8285C20.1138 10.9243 19.5791 10.1155 18.4926 10.0063C17.4093 9.89716 16.7289 10.5799 16.1602 11.3841C16.0424 11.5502 15.9416 11.7301 15.8455 11.9116C15.0939 13.3309 14.9218 14.8778 14.8475 16.4447C14.8366 16.6908 14.9389 16.8907 15.0768 17.0798C15.7464 17.9963 16.6065 18.6744 17.6945 19.025C19.0521 19.4617 20.0735 18.9589 20.6004 17.6257C20.9445 16.7538 21.0173 15.8373 21.0096 14.9116Z" fill="black"/>
<path d="M60.1969 54.6767C60.1969 57.8721 60.2 60.9398 60.1953 64.0076C60.1938 65.0978 60.3348 64.9702 59.1895 64.9717C55.9116 64.9763 52.6337 64.9579 49.3558 64.9871C48.7359 64.9932 48.5174 64.8641 48.5189 64.1982C48.5406 55.0304 48.5391 45.8611 48.522 36.6932C48.5205 36.0981 48.6693 35.9152 49.2892 35.9213C52.2835 35.9536 55.2777 35.9505 58.272 35.9228C58.8485 35.9167 59.0144 36.0689 59.0051 36.6471C58.971 38.8752 58.9973 41.1034 58.9849 43.3315C58.9834 43.739 59.0082 44.002 59.5459 43.9958C60.0403 43.9912 60.2124 43.8666 60.2124 43.3531C60.2139 42.0152 60.4185 40.7005 60.8339 39.4227C61.9327 36.0443 64.5426 34.0145 68.1041 33.6547C72.0592 33.2549 74.9946 34.8434 76.7909 38.2555C79.2117 42.8564 79.3977 47.6771 77.2186 52.3979C74.3638 58.5825 66.6705 60.3094 61.6367 56.0392C61.1717 55.6409 60.7471 55.198 60.1969 54.6767ZM66.438 48.3383C66.438 46.8206 66.1963 45.6473 65.7034 44.7693C64.7735 43.1101 63.1803 42.9317 61.9327 44.3587C61.6987 44.6263 61.491 44.9277 61.3236 45.2414C60.5409 46.7022 60.3224 48.2891 60.3023 49.9175C60.2992 50.1651 60.4045 50.3635 60.5456 50.548C61.2151 51.4276 62.0536 52.0872 63.1167 52.4301C64.4666 52.8669 65.5128 52.3717 66.0335 51.0539C66.3791 50.1836 66.4489 49.2655 66.438 48.3383Z" fill="black"/>
<path d="M104.832 55.3102C104.832 56.5097 104.823 57.5845 104.838 58.6594C104.843 58.99 104.64 59.1699 104.443 59.3683C103.017 60.7999 101.3 61.7609 99.4044 62.4283C96.3962 63.4878 93.3136 63.8015 90.1861 63.108C85.0344 61.9639 81.8867 58.7347 80.6996 53.6864C79.7867 49.7976 79.9649 45.8918 81.1459 42.0736C82.6756 37.1284 86.4572 34.1621 91.6646 33.6593C93.6825 33.464 95.6895 33.4825 97.6764 33.8792C102.744 34.8879 105.771 38.0064 106.67 43.0793C107.143 45.7488 106.93 48.4428 106.988 51.1277C106.997 51.5521 106.755 51.5644 106.448 51.5628C105.545 51.5582 104.641 51.5613 103.738 51.5613C100.021 51.5659 96.3032 51.5859 92.5867 51.5582C91.9126 51.5536 91.77 51.7551 91.8304 52.3855C92.1698 55.9407 94.7177 57.7767 98.6434 57.2739C100.477 57.0386 102.21 56.4712 103.891 55.7346C104.173 55.6101 104.449 55.4825 104.832 55.3102ZM96.2567 44.0742C96.2753 42.8886 96.2629 41.4017 96.1451 39.9209C96.0568 38.8214 95.922 37.7265 95.4167 36.7209C95.1114 36.115 94.6697 35.6645 93.9289 35.6722C93.1912 35.6799 92.7572 36.1381 92.4488 36.7409C92.19 37.2468 92.0365 37.7911 91.9528 38.3493C91.412 41.946 91.7483 45.5612 91.7204 49.1671C91.7173 49.5638 91.9373 49.6161 92.2644 49.613C93.374 49.6023 94.4868 49.5761 95.5949 49.6223C96.1777 49.6469 96.2753 49.4131 96.266 48.9088C96.2397 47.3987 96.2567 45.8872 96.2567 44.0742Z" fill="black"/>
<path d="M81.1165 22.6755C78.6941 22.6586 76.3213 22.3449 74.1004 21.3392C69.7454 19.3679 67.3122 16.0464 67.368 11.2349C67.4238 6.48648 69.8756 3.17272 74.2306 1.3859C78.7329 -0.462424 83.3607 -0.440896 87.8939 1.32439C92.4116 3.08353 94.9565 6.91396 94.9069 11.5578C94.8588 16.051 92.1606 19.7846 87.7095 21.5283C85.5893 22.3572 83.3777 22.6586 81.1165 22.6755ZM83.4227 11.4333C83.4459 9.66646 83.4211 7.89964 83.2801 6.13896C83.1871 4.96569 83.0755 3.7878 82.516 2.71756C82.2262 2.16244 81.8046 1.78724 81.1227 1.78571C80.4392 1.78417 80.027 2.17321 79.7279 2.71756C79.3636 3.37877 79.187 4.10611 79.1157 4.84421C78.6864 9.21284 78.6817 13.583 79.1219 17.9501C79.204 18.7651 79.3931 19.5724 79.872 20.2659C80.5369 21.227 81.707 21.2223 82.3781 20.2659C82.7082 19.7953 82.8756 19.2556 82.9872 18.702C83.4707 16.2986 83.3963 13.8629 83.4227 11.4333Z" fill="black"/>
<path d="M88.334 24.7376C94.2946 24.7376 100.255 24.7453 106.216 24.7253C106.806 24.7237 107.017 24.8452 107 25.4757C106.954 27.241 106.958 29.0093 106.999 30.7746C107.012 31.382 106.836 31.5435 106.227 31.5404C99.2851 31.5189 92.3434 31.5266 85.4033 31.5266C80.371 31.5266 75.3402 31.5173 70.308 31.5389C69.7221 31.5419 69.5021 31.4158 69.5175 30.7838C69.5625 29.0185 69.5594 27.2502 69.5191 25.4849C69.5051 24.8729 69.688 24.7207 70.2956 24.7222C76.3089 24.7468 82.3207 24.7376 88.334 24.7376Z" fill="black"/>
<path d="M102.086 1.23671C102.174 1.31975 102.286 1.42124 102.392 1.52734C103.798 2.91897 105.198 4.31521 106.611 5.69914C106.871 5.9544 106.958 6.12509 106.647 6.42956C105.173 7.86116 103.718 9.31122 102.268 10.7674C102.025 11.0119 101.878 11.0765 101.597 10.792C100.173 9.34659 98.7333 7.91806 97.2827 6.49875C97.0099 6.23119 97.0409 6.07281 97.2966 5.82216C98.7659 4.38594 100.218 2.93281 101.681 1.4889C101.783 1.38587 101.855 1.22595 102.086 1.23671Z" fill="black"/>
<path d="M106.929 16.5908C106.797 16.7353 106.699 16.8506 106.594 16.9567C105.153 18.3883 103.702 19.8123 102.276 21.2577C101.972 21.5653 101.808 21.5007 101.54 21.23C100.147 19.823 98.7411 18.4283 97.3261 17.0429C97.0502 16.7722 97.0084 16.5985 97.3075 16.3063C98.7814 14.8716 100.238 13.4185 101.692 11.9623C101.912 11.7424 102.053 11.6732 102.309 11.9315C103.758 13.3923 105.224 14.8347 106.682 16.2863C106.769 16.3739 106.837 16.477 106.929 16.5908Z" fill="black"/>
</svg>
